<?xml version="1.0" standalone="no"?>
<!DOCTYPE svg PUBLIC "-//W3C//DTD SVG 20010904//EN"
 "http://www.w3.org/TR/2001/REC-SVG-20010904/DTD/svg10.dtd">
<svg version="1.0" xmlns="http://www.w3.org/2000/svg"
 width="609.000000pt" height="630.000000pt" viewBox="0 0 609.000000 630.000000"
 preserveAspectRatio="xMidYMid meet">

<g transform="translate(0.000000,630.000000) scale(0.100000,-0.100000)"
fill="#000000" stroke="none">
<path d="M0 5887 l2 -413 28 -11 c25 -9 31 -8 42 9 12 18 26 20 133 21 l120 2
2 45 c1 25 0 39 -3 33 -4 -9 -30 -13 -81 -13 -67 0 -75 2 -80 20 -3 12 -13 20
-22 19 -39 -4 -49 1 -44 21 4 13 14 20 30 20 39 0 83 56 61 78 -8 8 -4 13 15
17 14 4 30 4 36 1 5 -3 16 1 24 9 20 19 47 19 75 -1 20 -14 23 -14 28 1 4 8 1
22 -6 30 -18 21 4 45 42 45 18 0 27 4 23 10 -11 18 16 41 38 34 25 -8 97 15
97 31 0 6 -5 16 -12 23 -7 7 -8 15 -1 24 32 43 -21 118 -83 118 -20 0 -33 4
-30 9 3 5 -3 11 -14 14 -11 3 -20 12 -20 21 0 9 -8 16 -19 16 -24 0 -36 29
-16 36 9 4 21 1 29 -5 7 -6 50 -14 95 -18 76 -6 81 -5 75 12 -6 15 -3 17 14
13 12 -4 22 -2 22 3 0 5 11 9 23 9 25 0 49 22 60 53 4 9 13 17 20 17 16 0 47
32 47 48 0 9 -95 12 -375 12 l-376 0 1 -413z m332 252 c23 -14 4 -15 -47 -3
l-50 12 42 -1 c23 0 48 -4 55 -8z m148 -108 c0 -14 -5 -18 -20 -14 -11 3 -20
12 -20 19 0 8 9 14 20 14 13 0 20 -7 20 -19z m-80 -191 c0 -5 -4 -10 -10 -10
-5 0 -10 5 -10 10 0 6 5 10 10 10 6 0 10 -4 10 -10z m-239 -81 c-9 -22 -10
-22 -10 -3 -1 11 2 24 6 27 12 12 14 0 4 -24z m-81 -235 c0 -9 -5 -14 -12 -12
-18 6 -21 28 -4 28 9 0 16 -7 16 -16z"/>
<path d="M880 6290 c0 -5 15 -10 34 -10 18 0 39 -7 46 -15 11 -13 10 -14 -4
-9 -9 3 -16 1 -16 -5 0 -6 5 -11 10 -11 6 0 10 -7 10 -15 0 -8 -14 -17 -35
-21 -34 -6 -35 -7 -19 -25 9 -11 25 -19 36 -19 10 0 18 -4 18 -10 0 -13 36
-13 61 0 13 7 19 7 19 1 0 -11 103 -9 170 3 19 4 49 2 65 -3 28 -9 26 -9 -25
-12 -41 -2 -47 -3 -21 -6 25 -3 31 -7 21 -13 -22 -14 -8 -20 61 -28 38 -5 63
-12 62 -19 -1 -6 4 -17 12 -23 8 -7 15 -22 15 -34 0 -14 12 -28 35 -40 39 -21
42 -33 19 -77 -19 -37 -9 -52 15 -23 23 29 61 38 61 14 0 -10 7 -20 16 -22 16
-3 48 -50 80 -118 9 -19 20 -75 24 -125 6 -67 14 -104 34 -142 24 -49 26 -62
26 -188 0 -87 -4 -135 -10 -135 -13 0 -9 -52 4 -61 5 -4 4 -21 -3 -40 -8 -22
-8 -35 -1 -39 6 -4 -1 -12 -15 -18 -30 -14 -31 -23 -5 -47 25 -23 25 -30 0
-32 -11 -1 -25 7 -30 18 -7 13 -21 19 -43 19 -22 0 -28 3 -18 9 11 7 9 10 -8
16 -24 7 -36 1 -36 -18 0 -7 -7 -13 -15 -13 -8 -1 -21 -2 -27 -3 -17 -1 -17
-36 0 -49 10 -8 26 -7 62 3 26 8 49 14 50 13 21 -42 21 -120 -1 -137 -5 -3
-19 -20 -31 -37 l-22 -31 20 -89 c22 -97 20 -163 -6 -218 -16 -32 -15 -35 17
-92 l32 -59 0 -211 c0 -186 -2 -213 -17 -228 -21 -21 -22 -37 -2 -30 11 4 15
-1 16 -17 1 -17 3 -19 6 -6 6 23 23 22 23 -2 0 -11 5 -23 10 -26 15 -10 12
-78 -6 -114 -12 -25 -13 -35 -4 -46 8 -10 10 -30 6 -57 -16 -106 -16 -116 -1
-122 8 -3 15 -12 15 -21 0 -9 12 -27 26 -40 26 -24 26 -25 19 -120 -7 -88 -11
-100 -37 -96 -26 4 -7 -174 21 -202 16 -16 13 -88 -5 -138 -8 -24 -16 -60 -16
-79 0 -19 -3 -39 -7 -45 -16 -21 -44 -151 -43 -198 1 -32 9 -63 26 -92 15 -24
26 -59 26 -79 0 -19 5 -47 11 -63 17 -41 18 -60 19 -276 1 -160 -1 -202 -13
-215 -8 -10 -17 -28 -20 -42 -4 -14 -22 -41 -41 -61 -64 -67 -56 -112 23 -134
19 -6 38 -17 42 -25 20 -37 38 -88 43 -124 3 -21 7 -40 10 -43 10 -10 106 -30
106 -22 0 5 16 9 35 9 19 0 52 9 72 20 21 11 48 20 61 20 13 0 33 10 45 22 13
13 26 24 30 24 70 13 67 10 67 68 0 37 -5 60 -16 71 -10 10 -17 36 -19 68 -2
62 12 114 28 98 6 -6 20 -11 32 -11 12 0 26 -5 33 -12 7 -7 33 -15 59 -18 34
-4 51 -12 64 -30 29 -39 49 -185 50 -354 1 -184 -10 -222 -76 -261 -28 -16
-45 -33 -47 -48 -3 -19 -10 -22 -50 -25 -27 -2 -48 1 -48 7 0 5 -24 21 -53 35
l-54 25 -66 -21 c-37 -12 -67 -28 -67 -35 0 -7 -8 -13 -17 -13 -27 -1 -87 -84
-96 -132 -8 -44 -1 -111 14 -139 4 -8 36 -34 70 -57 l62 -42 125 0 c112 0 128
2 161 22 47 30 101 51 126 49 11 0 58 -4 105 -7 77 -5 88 -4 113 16 21 17 27
30 27 60 0 54 16 90 52 121 28 22 32 33 35 85 3 47 0 66 -17 92 -13 21 -27 32
-38 30 -9 -2 -27 5 -39 15 -19 17 -21 30 -22 108 0 91 -8 152 -22 180 -5 9 -2
35 6 62 8 26 10 49 6 52 -13 7 -23 73 -16 95 6 19 45 29 45 11 0 -4 23 -11 52
-14 28 -4 54 -10 57 -15 3 -5 16 -12 29 -16 12 -4 22 -12 22 -17 0 -12 97 -12
105 1 14 23 169 -4 206 -36 8 -8 19 -14 22 -14 4 0 25 -11 47 -25 23 -14 54
-25 75 -25 19 0 35 -5 35 -11 0 -5 4 -8 9 -5 23 14 179 -29 201 -55 6 -8 52
-24 61 -21 12 3 19 -43 11 -70 l-7 -26 -39 19 c-49 23 -76 24 -103 2 -18 -14
-19 -21 -10 -47 6 -17 16 -35 24 -39 7 -4 20 -21 28 -37 9 -17 20 -30 26 -30
18 0 67 52 62 66 -2 6 0 15 6 19 7 4 11 -7 11 -30 0 -20 6 -48 14 -63 11 -21
13 -56 9 -147 -5 -129 -5 -130 2 -250 7 -109 -3 -129 -72 -133 -33 -2 -63 3
-82 12 -17 9 -44 16 -61 16 -17 0 -39 4 -49 9 -19 11 -143 -4 -175 -21 -40
-21 -64 -19 -84 7 -14 17 -30 25 -51 25 -44 0 -42 -11 14 -58 23 -19 18 -62
-9 -87 -20 -18 -25 -33 -25 -72 -1 -94 1 -123 9 -123 4 0 10 -10 14 -23 3 -15
24 -34 58 -52 29 -16 55 -31 58 -34 38 -46 244 -42 390 6 25 9 86 16 135 18
111 3 193 13 223 28 31 15 56 62 44 84 -7 11 -5 22 7 35 30 32 51 117 41 168
-5 25 -9 48 -10 51 0 4 -12 10 -27 13 -67 17 -82 28 -81 66 0 20 -7 51 -16 68
-11 21 -16 57 -16 110 0 43 -4 82 -10 88 -5 5 -9 83 -9 184 0 96 0 186 -1 199
0 37 26 70 70 87 22 9 40 21 40 26 0 11 76 5 87 -6 3 -3 -4 -17 -16 -32 -11
-15 -21 -32 -21 -39 0 -7 -6 -18 -14 -24 -7 -6 -16 -28 -20 -49 -4 -26 -18
-50 -47 -77 -37 -37 -40 -43 -34 -79 7 -45 40 -78 70 -69 11 3 22 9 25 13 3 4
34 7 70 6 l65 -1 2 -40 c5 -82 27 -187 41 -202 12 -12 32 -14 89 -11 84 6 114
25 134 87 19 61 35 72 90 65 43 -6 50 -4 80 24 30 28 31 32 25 84 -7 52 -24
83 -58 105 -13 8 -78 99 -78 108 0 3 -11 23 -25 45 -14 22 -25 46 -25 53 0 7
-8 22 -19 33 -25 28 -34 59 -26 94 6 29 8 30 70 30 35 0 67 5 70 10 3 6 17 10
30 10 13 0 30 7 39 15 8 8 19 15 24 15 6 0 13 6 15 13 4 10 6 10 6 0 1 -7 7
-13 15 -13 8 0 17 -6 19 -12 4 -10 6 -10 6 0 1 14 121 18 121 4 0 -5 15 -9 33
-9 69 -1 97 -15 97 -47 0 -12 11 -32 23 -45 23 -21 28 -21 122 -12 145 13 205
8 226 -18 9 -11 22 -21 28 -21 6 0 11 -7 11 -16 0 -12 13 -15 63 -15 126 -1
247 -11 247 -20 0 -5 12 -9 26 -9 15 0 32 -7 38 -16 9 -12 36 -16 115 -20 57
-2 109 -8 116 -14 7 -6 32 -10 56 -9 24 1 71 -5 104 -14 33 -9 63 -16 68 -17
4 0 7 164 7 365 l0 365 -27 5 c-16 3 -55 12 -88 20 -33 8 -97 19 -143 25 -46
5 -87 12 -91 14 -4 3 -56 7 -116 11 -61 4 -114 11 -119 16 -6 5 -21 9 -34 9
-13 0 -48 11 -79 26 -31 14 -70 28 -87 31 -17 3 -54 16 -82 29 -27 14 -76 29
-109 34 -32 5 -63 14 -69 20 -5 5 -20 10 -32 10 -12 0 -24 3 -26 8 -5 12 -94
52 -117 52 -12 0 -32 5 -44 11 -25 14 -161 49 -188 49 -11 0 -19 4 -19 9 0 5
-16 12 -35 15 -29 6 -34 10 -26 24 5 9 12 38 16 64 5 33 12 48 26 51 15 4 19
14 19 50 0 41 3 46 29 55 36 13 44 57 35 182 -7 96 10 208 33 217 7 3 13 13
13 23 0 23 17 35 23 18 2 -7 7 5 11 27 4 21 16 51 26 65 27 38 32 68 20 130
-6 30 -14 71 -17 90 -3 19 -10 38 -16 42 -15 9 10 56 32 60 9 2 45 -4 81 -14
36 -10 78 -18 93 -18 16 0 43 -6 60 -14 18 -7 83 -24 145 -36 62 -13 115 -27
118 -32 3 -4 15 -8 26 -8 11 0 67 -13 125 -30 57 -17 117 -30 134 -30 17 0 38
-4 48 -9 9 -5 55 -15 101 -21 47 -6 95 -18 107 -26 12 -8 29 -14 37 -14 8 0
47 -11 88 -25 40 -14 83 -25 96 -25 20 0 22 4 22 60 0 41 -4 60 -12 61 -7 1
-37 3 -67 5 -29 1 -75 12 -101 23 -48 21 -70 25 -190 37 -36 4 -83 15 -105 24
-57 25 -69 29 -142 40 -36 6 -79 18 -95 26 -17 9 -27 11 -24 5 4 -6 2 -11 -3
-11 -6 0 -11 4 -11 9 0 10 -111 27 -147 23 -13 -2 -23 2 -23 8 0 5 -11 10 -24
10 -14 0 -31 6 -38 14 -12 12 -76 27 -135 31 -23 2 -103 52 -103 66 0 4 10 11
22 15 30 9 47 33 48 64 0 20 2 22 10 10 6 -10 10 48 10 174 l0 188 24 -6 c18
-4 28 0 40 19 9 14 13 25 10 25 -4 0 0 8 8 18 41 48 49 156 16 227 -12 27 -6
67 22 140 6 17 11 32 10 35 -2 7 41 18 78 19 32 1 45 22 22 36 -6 4 -8 11 -4
16 3 5 0 17 -7 25 -27 33 48 56 108 33 49 -19 132 -39 191 -45 31 -4 71 -12
87 -19 17 -7 59 -16 94 -19 35 -3 70 -11 76 -16 7 -6 46 -15 86 -20 41 -5 112
-16 159 -25 119 -21 112 -23 108 38 l-3 52 -75 6 c-78 7 -149 20 -235 44 -27
8 -88 19 -135 25 -47 6 -107 17 -135 24 -97 27 -211 55 -265 66 -55 12 -120
38 -131 53 -3 5 -33 13 -65 18 -32 6 -93 16 -134 23 -41 7 -88 18 -103 24 -16
7 -34 12 -42 12 -8 0 -17 5 -20 10 -3 6 -14 10 -23 10 -9 0 -30 7 -46 15 -15
8 -36 15 -46 15 -10 0 -23 7 -30 15 -9 11 -32 15 -79 15 -40 0 -74 5 -86 14
-13 8 -58 15 -123 18 -57 2 -106 8 -110 13 -4 6 -29 22 -57 37 -46 24 -63 26
-220 33 -98 4 -173 12 -176 18 -6 9 -23 13 -134 32 -42 7 -143 43 -159 57 -6
4 -18 8 -28 8 -9 0 -21 7 -26 16 -5 8 -23 16 -41 16 -18 1 -35 7 -38 14 -2 6
-20 12 -38 12 -19 0 -49 5 -67 10 -18 6 -51 13 -73 17 -22 4 -44 10 -50 13
-18 12 -119 33 -217 45 -53 7 -100 15 -104 20 -4 4 -21 7 -38 7 -18 0 -40 6
-51 14 -11 7 -44 15 -74 18 -29 3 -56 10 -60 15 -3 5 -37 25 -76 43 -75 37
-122 77 -129 113 -13 64 -14 104 -3 138 6 22 15 39 18 39 10 0 17 33 38 191
32 236 34 269 16 319 -34 99 -4 90 -297 90 -208 0 -258 -3 -258 -13 0 -8 3
-17 8 -21 4 -4 8 -20 9 -34 0 -15 3 -35 5 -46 6 -36 -99 -59 -140 -30 -30 21
-65 91 -59 120 l4 24 -403 0 c-263 0 -404 -3 -404 -10z m184 -15 c3 -8 12 -15
21 -15 8 0 15 -4 15 -10 0 -5 -9 -10 -21 -10 -11 0 -18 -4 -15 -9 8 -13 -18
-21 -35 -10 -8 5 -10 9 -5 9 5 0 3 6 -3 14 -9 11 -8 18 4 30 20 20 31 20 39 1z
m506 -188 c0 -7 3 -22 6 -35 7 -26 -13 -27 -33 -2 -19 23 -15 46 7 47 11 1 20
-4 20 -10z m-128 -16 c12 -14 14 -27 9 -48 -8 -28 -8 -28 -16 12 -4 22 -13 43
-19 47 -7 5 -7 8 -1 8 6 0 18 -9 27 -19z m573 -40 c6 -5 19 -11 30 -14 18 -4
18 -5 -2 -6 -13 0 -23 -5 -23 -10 0 -4 -27 -11 -59 -14 -79 -9 -82 -9 -104
-29 -18 -15 -18 -18 -4 -38 16 -22 46 -44 80 -56 9 -3 17 -15 17 -25 0 -21 16
-26 23 -6 5 14 21 -76 19 -113 0 -14 -1 -86 -2 -160 -1 -74 -5 -139 -9 -145
-18 -22 -20 -67 -9 -171 15 -142 14 -239 -2 -259 -7 -8 -9 -15 -4 -16 21 -1
-34 -18 -63 -18 -17 -1 -35 -6 -38 -11 -8 -13 -46 -3 -61 16 -8 10 -8 28 -2
57 13 65 22 191 22 307 0 122 -26 353 -41 372 -6 7 -18 40 -27 73 -9 33 -21
74 -27 91 -15 50 -11 132 9 159 16 23 22 24 142 25 70 0 130 -4 135 -9z m485
-737 c30 -14 68 -28 86 -31 42 -7 53 -39 18 -55 -13 -6 -24 -15 -24 -20 0 -4
-8 -8 -17 -8 -9 0 -24 -7 -33 -15 -22 -20 -168 -32 -197 -16 -18 9 -21 18 -18
52 4 37 15 57 55 102 22 24 69 21 130 -9z m395 -104 c25 -11 -1 -11 -35 0 -20
6 -21 8 -5 8 11 0 29 -3 40 -8z m-144 -60 c5 0 20 -9 32 -21 20 -19 31 -21
103 -16 44 2 89 9 100 15 13 7 36 6 72 -1 43 -9 55 -9 62 3 18 30 210 1 210
-32 0 -12 -73 -10 -107 3 -23 8 -30 7 -40 -7 -7 -10 -13 -21 -13 -25 0 -18 38
-50 65 -53 17 -2 50 -7 74 -11 27 -5 45 -4 50 3 8 14 175 19 192 5 8 -6 24
-14 37 -17 12 -4 22 -12 22 -17 0 -5 7 -9 16 -9 14 0 14 -3 4 -15 -7 -8 -21
-15 -31 -15 -10 0 -24 -9 -33 -21 -23 -34 -3 -75 50 -99 78 -36 204 -19 204
26 0 8 4 14 9 14 6 0 11 16 13 37 3 41 10 44 102 43 32 0 64 4 72 11 10 8 27
7 69 -5 30 -9 55 -20 55 -25 0 -5 8 -12 18 -15 23 -9 61 -31 75 -45 6 -6 26
-11 44 -11 34 0 83 -18 83 -31 0 -4 -8 -10 -18 -13 -11 -4 -28 -16 -39 -29
-17 -17 -20 -30 -15 -57 15 -77 21 -80 179 -70 56 3 63 6 73 30 17 42 -23 120
-62 120 -19 0 -22 8 -12 34 8 22 67 21 101 -1 15 -10 37 -28 50 -40 12 -13 30
-23 40 -23 10 0 36 -7 58 -15 23 -8 78 -14 132 -15 50 0 94 -4 98 -10 6 -9
-68 -50 -92 -50 -21 0 -86 -58 -78 -70 9 -14 -47 -30 -81 -24 -22 4 -34 2 -34
-5 0 -6 -10 -11 -23 -11 -13 0 -54 -9 -91 -21 -59 -19 -68 -25 -73 -50 -4 -20
-12 -29 -24 -29 -11 0 -19 -4 -19 -9 0 -5 -11 -8 -24 -8 -14 0 -43 -15 -65
-32 -39 -31 -41 -32 -120 -25 -44 4 -78 11 -75 15 5 10 -6 10 -211 13 -71 0
-135 4 -142 9 -6 4 -9 16 -6 28 5 19 10 20 87 14 68 -5 97 -2 180 19 54 15
100 26 102 26 1 0 6 21 10 46 7 46 6 47 -40 89 -25 24 -46 47 -46 53 0 23 -78
36 -220 36 -164 0 -236 -16 -245 -57 -12 -59 -11 -87 5 -123 10 -21 17 -42 14
-45 -4 -7 -129 -12 -277 -12 -81 0 -89 2 -111 26 -15 16 -40 29 -65 33 -23 4
-41 10 -41 15 0 4 -10 11 -22 15 -13 4 -25 11 -29 15 -8 14 -120 25 -164 17
-75 -13 -182 -9 -199 8 -9 8 -16 12 -16 8 0 -4 -11 4 -24 17 -47 48 -88 73
-129 77 -23 2 -46 8 -52 13 -12 12 -92 12 -100 -1 -3 -5 -41 -10 -83 -10 -53
0 -72 3 -62 10 11 7 2 10 -32 10 -31 0 -50 5 -55 15 -10 18 -68 25 -193 26
-52 0 -105 3 -117 6 -26 6 -30 28 -7 37 24 9 82 7 89 -3 3 -6 17 -4 33 5 15 7
33 14 40 14 19 0 72 42 72 57 0 7 5 13 10 13 6 0 10 7 10 15 0 17 59 74 76 75
6 0 23 9 37 20 22 17 40 20 141 20 119 0 203 18 219 46 4 8 14 14 21 14 7 0
19 11 26 25 10 19 22 25 59 27 31 2 47 -1 49 -9 2 -7 8 -13 13 -13z m-944
-390 c32 -16 60 -19 182 -21 80 0 151 -3 159 -6 7 -3 18 -17 23 -30 l9 -24
166 2 c101 0 169 -3 173 -9 3 -6 24 -13 45 -17 22 -5 51 -14 65 -21 14 -8 30
-14 35 -14 4 0 17 -11 27 -24 11 -14 39 -29 67 -37 49 -12 53 -12 221 -3 67 3
107 2 114 -5 6 -6 19 -11 29 -11 10 0 18 -6 18 -13 0 -8 33 -29 72 -47 40 -18
78 -39 84 -48 9 -12 27 -14 88 -10 42 3 82 10 89 17 6 6 23 11 39 11 15 0 31
6 35 14 9 15 73 11 73 -5 0 -5 7 -9 15 -9 8 0 15 -4 15 -9 0 -5 10 -13 23 -16
12 -4 60 -25 107 -47 l84 -40 86 12 c47 7 115 15 152 17 67 5 68 5 79 -23 12
-30 13 -32 24 -105 7 -44 5 -48 -28 -83 -19 -20 -32 -36 -29 -36 4 0 3 -4 -3
-8 -16 -11 -45 -80 -45 -106 0 -13 7 -43 15 -66 19 -54 19 -129 0 -154 -8 -11
-15 -30 -15 -43 0 -35 -30 -114 -56 -149 -33 -43 -32 -99 2 -150 18 -26 27
-54 29 -88 3 -56 -9 -91 -43 -124 -13 -12 -20 -27 -17 -32 3 -6 -1 -13 -9 -16
-9 -3 -16 -12 -16 -20 0 -8 -9 -22 -20 -31 -27 -23 -27 -82 0 -116 34 -43 35
-136 4 -232 -34 -101 -42 -123 -60 -158 -20 -42 -17 -81 9 -109 32 -34 45
-100 33 -168 -5 -30 -12 -57 -16 -60 -8 -6 -35 -65 -45 -97 -3 -13 -10 -23
-15 -23 -4 0 -11 -15 -14 -33 -6 -31 -9 -33 -48 -36 -23 -1 -44 -4 -46 -6 -2
-1 -29 6 -60 17 -31 11 -75 23 -97 25 -22 3 -55 11 -73 19 -18 7 -57 16 -85
20 -29 3 -74 12 -101 20 -27 8 -68 14 -90 14 -23 1 -52 7 -66 15 -14 8 -40 14
-57 15 -18 0 -33 4 -33 8 0 4 -28 13 -62 19 -94 16 -161 33 -180 43 -10 6 -30
10 -45 10 -16 0 -68 13 -118 29 -87 28 -405 106 -475 117 -19 3 -39 9 -45 13
-5 5 -42 11 -81 14 -39 4 -84 13 -100 22 -16 8 -41 15 -56 15 -15 0 -39 11
-54 25 -15 14 -30 25 -34 25 -4 0 -15 17 -24 39 -18 40 -18 58 5 156 17 73 14
149 -11 243 -21 79 -21 84 -4 109 12 19 17 45 16 89 -1 38 5 74 13 91 8 15 15
22 15 16 0 -7 6 -13 14 -13 8 0 33 -16 56 -35 42 -35 77 -43 169 -37 13 1 36
-5 52 -13 15 -8 40 -15 55 -15 27 0 64 -24 64 -42 0 -4 -15 -8 -32 -8 -49 0
-78 -11 -78 -28 0 -20 -29 -52 -47 -52 -7 0 -13 -4 -13 -10 0 -5 -7 -10 -16
-10 -8 0 -12 -5 -9 -10 4 -6 1 -17 -5 -25 -11 -13 -7 -15 24 -15 45 0 48 -1
64 -17 7 -7 22 -13 32 -13 22 0 40 -28 40 -62 0 -36 23 -78 43 -78 10 0 30
-11 44 -24 29 -27 108 -42 165 -31 39 8 92 50 85 69 -3 7 -1 19 4 27 6 10 10
6 15 -18 3 -18 6 -35 5 -38 -1 -3 8 -15 19 -27 11 -12 20 -25 20 -29 0 -17 69
-41 133 -46 74 -6 117 7 117 37 0 9 10 26 21 39 17 19 28 22 56 16 45 -8 90 2
90 21 0 27 -55 64 -96 64 -37 0 -122 26 -175 53 -16 9 -35 13 -42 10 -8 -3
-14 -1 -14 4 0 5 -19 10 -42 12 -24 1 -70 6 -103 11 -33 5 -100 14 -150 20
-106 12 -163 28 -190 53 -17 15 -18 19 -5 27 8 5 28 10 43 10 20 0 40 12 67
40 33 34 45 40 80 40 73 0 141 46 94 64 -9 3 -43 6 -77 6 -34 0 -87 6 -117 13
-30 7 -80 14 -110 16 -98 4 -213 46 -250 92 -3 4 -15 10 -28 14 -20 6 -23 13
-20 43 4 53 32 72 106 72 34 0 64 -4 67 -10 3 -5 18 -10 33 -10 15 0 40 -7 56
-15 15 -8 33 -15 38 -15 18 0 118 -50 137 -69 10 -10 34 -22 52 -26 19 -4 39
-11 44 -15 13 -11 150 -48 245 -67 41 -8 77 -18 80 -22 3 -3 16 -8 30 -10 14
-1 27 -6 30 -10 3 -5 18 -11 35 -15 16 -4 33 -13 37 -19 5 -8 56 -13 161 -14
128 -1 161 -4 196 -20 23 -11 38 -22 35 -26 -4 -4 7 -7 24 -7 22 0 32 5 32 15
0 8 -3 15 -8 15 -4 0 -13 9 -20 21 -15 23 -7 59 12 59 18 0 85 53 86 67 0 7 9
17 20 23 11 6 20 17 20 25 0 9 13 29 30 47 17 17 30 37 30 44 0 7 5 14 12 16
9 3 12 47 10 167 l-2 163 -40 44 c-22 24 -40 48 -40 53 0 5 19 15 43 23 59 18
54 39 -13 54 -82 19 -119 21 -175 12 -27 -4 -88 -12 -134 -18 -46 -5 -94 -16
-107 -24 -38 -26 -174 -58 -266 -63 -79 -5 -88 -4 -94 13 -10 26 -41 55 -55
52 -7 -2 -21 -11 -31 -20 -25 -25 -61 -22 -103 6 -20 14 -53 30 -73 37 -20 7
-46 22 -57 34 -11 13 -30 26 -42 30 -13 3 -23 11 -23 16 0 5 -10 9 -22 9 -19
0 -20 2 -8 10 12 8 11 10 -6 10 -12 0 -24 7 -27 15 -7 17 -87 55 -119 56 -13
0 -32 4 -43 8 -13 6 -38 0 -75 -16 -54 -24 -90 -26 -158 -7 -21 6 -23 4 -20
-22 2 -16 9 -30 16 -30 6 -1 17 -2 22 -3 15 -2 11 -63 -5 -85 -8 -11 -15 -28
-15 -38 0 -10 -4 -18 -8 -18 -5 0 -9 -6 -9 -12 -1 -7 -6 -35 -13 -63 -17 -73
-24 -183 -12 -198 5 -6 13 -34 17 -62 4 -27 11 -56 17 -62 7 -9 5 -23 -6 -47
-9 -19 -16 -39 -16 -45 0 -6 -8 -15 -18 -20 -15 -8 -23 -4 -42 21 -18 25 -22
43 -22 99 0 42 6 81 16 100 16 33 22 105 9 111 -15 6 -52 94 -56 133 -6 46 20
173 40 196 14 17 18 79 5 79 -15 0 -45 104 -52 182 -5 55 -3 94 7 131 17 63
10 122 -22 185 -22 44 -23 49 -8 72 17 27 42 50 55 50 4 0 24 -9 45 -20z
m3251 -101 c12 -18 11 -31 -4 -85 -15 -58 -23 -69 -46 -65 -5 0 -8 -7 -8 -16
0 -15 -2 -16 -10 -3 -9 13 -10 13 -11 0 -3 -42 -7 -68 -14 -100 -4 -19 -7 -81
-7 -137 0 -58 -3 -103 -9 -103 -5 0 -9 -9 -9 -19 0 -11 -5 -23 -10 -26 -6 -4
-8 -11 -5 -16 4 -5 1 -9 -5 -9 -6 0 -9 -4 -6 -9 3 -5 -1 -15 -10 -22 -8 -7
-25 -31 -37 -53 -18 -35 -21 -59 -22 -156 -1 -159 -1 -159 -36 -191 -33 -31
-71 -37 -113 -18 -32 15 -72 4 -91 -25 -22 -34 -22 -122 0 -146 10 -11 24 -20
32 -20 7 0 13 -5 13 -11 0 -5 4 -8 10 -4 19 11 38 -42 45 -123 4 -45 11 -85
16 -88 10 -6 -17 -77 -31 -82 -6 -2 -10 -9 -10 -15 -1 -7 -14 -28 -30 -47 -17
-19 -30 -43 -30 -55 0 -11 -9 -49 -20 -84 -16 -53 -17 -72 -9 -105 30 -117 32
-137 19 -161 -7 -14 -20 -25 -27 -25 -8 0 -11 -4 -8 -10 12 -19 -26 -10 -63
15 -44 30 -101 33 -122 8 -21 -25 -15 -122 8 -130 9 -4 20 -10 23 -15 3 -5 15
-10 27 -11 27 -2 51 -42 34 -59 -14 -14 -16 -54 -3 -63 13 -7 10 -48 -4 -57
-6 -5 -6 -8 3 -8 6 0 12 -5 12 -11 0 -5 -4 -8 -9 -4 -6 3 -13 -1 -18 -8 -9
-15 -112 -31 -128 -19 -17 12 -35 61 -35 95 0 50 -31 71 -114 75 -77 5 -85 -1
-86 -58 -1 -84 -27 -189 -56 -224 -37 -45 -66 -44 -75 4 -4 20 -4 36 2 38 5 2
9 8 9 13 0 6 11 34 25 64 35 74 51 170 32 199 -31 47 -53 142 -37 161 4 5 8
13 8 18 1 28 16 68 33 83 19 17 21 17 42 -7 34 -38 62 -49 120 -49 47 0 56 4
83 33 42 47 52 68 63 139 6 35 14 86 18 113 15 99 5 188 -26 223 -24 28 -101
42 -101 18 0 -9 -5 -16 -11 -16 -13 0 -39 -25 -39 -39 0 -6 -9 -15 -20 -21
-11 -6 -20 -17 -20 -25 0 -8 -4 -15 -10 -15 -5 0 -10 -12 -10 -26 0 -57 -38
-84 -61 -43 -18 35 1 120 52 235 11 23 19 47 20 55 1 8 5 3 9 -11 6 -18 8 -3
9 50 1 55 -3 82 -15 99 -25 35 -20 232 5 217 4 -3 14 10 21 29 8 19 18 35 24
35 5 0 6 3 3 7 -4 3 -2 11 3 18 15 19 15 155 0 198 -11 30 -12 44 -2 70 7 18
12 46 12 61 0 14 7 29 15 32 8 4 15 17 15 31 0 13 14 44 30 68 17 24 30 55 30
69 0 23 4 26 34 26 19 0 37 4 40 9 3 5 21 12 40 15 36 7 80 53 104 108 17 41
72 60 185 64 109 5 131 16 142 77 8 39 40 62 100 70 22 3 41 10 43 16 7 20 56
12 70 -10z m-2878 -594 c7 -8 21 -15 31 -15 11 0 19 -6 19 -13 0 -7 29 -32 65
-55 35 -24 72 -50 81 -59 15 -15 14 -17 -2 -26 -10 -6 -35 -9 -56 -9 -78 3
-148 -46 -148 -104 0 -21 -4 -33 -10 -29 -29 18 2 -98 33 -123 13 -10 95 -30
142 -34 52 -4 125 13 125 29 0 8 7 21 15 29 15 15 18 123 3 134 -3 3 -9 17
-13 31 -6 26 -5 26 34 22 79 -9 126 -28 129 -53 2 -12 -2 -26 -9 -30 -7 -5
-16 -43 -21 -87 -9 -90 -9 -90 -2 -164 5 -49 3 -60 -17 -83 -24 -28 -52 -32
-96 -15 -15 6 -39 16 -53 21 -47 19 -110 53 -110 59 0 4 -15 9 -32 12 -18 3
-58 13 -88 22 -56 17 -69 19 -172 30 -32 4 -58 11 -58 16 0 5 -6 9 -13 9 -7 0
-22 15 -32 33 -17 27 -20 48 -17 136 1 76 6 109 17 121 8 9 15 20 15 24 0 4 7
14 15 22 8 9 15 29 15 45 0 20 5 29 16 29 8 0 12 5 9 10 -3 6 2 13 12 17 10 3
22 12 26 20 4 7 13 13 18 13 6 0 17 7 25 15 9 8 33 15 53 15 22 0 44 -6 51
-15z m1176 -161 c13 -3 35 -30 55 -66 19 -32 39 -65 46 -73 14 -15 19 -40 29
-134 7 -71 -5 -122 -46 -198 -11 -21 -20 -46 -20 -55 0 -10 -7 -18 -15 -18 -9
0 -18 -7 -21 -15 -4 -8 -12 -15 -20 -15 -8 0 -23 -9 -34 -20 -11 -11 -20 -17
-20 -14 0 4 -6 1 -14 -5 -18 -15 -102 -39 -151 -43 -22 -2 -90 1 -152 5 -87 7
-118 13 -137 28 -13 10 -31 19 -40 19 -9 0 -16 5 -16 12 0 6 -2 9 -5 6 -7 -7
-75 58 -75 71 0 5 -6 16 -12 23 -64 70 -62 65 -63 148 0 44 3 80 6 80 4 0 10
11 13 25 4 14 11 25 16 25 6 0 10 15 10 34 0 45 30 68 106 85 32 8 68 20 80
27 11 8 58 19 105 25 46 5 97 16 114 24 16 7 37 16 45 18 21 7 190 8 216 1z
m-875 -970 c29 -26 24 -61 -10 -79 -38 -19 -82 -10 -115 24 -28 29 -27 66 3
75 31 9 104 -3 122 -20z m304 -51 c57 -27 60 -86 5 -98 -39 -9 -130 36 -130
63 0 52 57 68 125 35z m-873 -465 c6 -10 8 -10 8 1 0 10 3 11 13 3 12 -11 94
-28 110 -24 4 1 7 -2 7 -8 0 -5 13 -10 29 -10 16 0 45 -7 64 -15 20 -8 51 -15
69 -15 18 0 42 -7 52 -15 11 -8 35 -15 53 -15 18 0 33 -4 33 -10 0 -5 9 -10
19 -10 11 0 23 -4 26 -10 3 -5 16 -10 27 -10 35 0 156 -39 161 -53 2 -6 3 -23
2 -37 -8 -80 -27 -290 -34 -383 -5 -60 -12 -111 -15 -114 -2 -3 -14 -2 -26 2
-12 4 -19 9 -16 12 2 3 -4 14 -15 26 -10 11 -19 28 -19 37 0 8 -14 31 -31 49
-17 19 -42 52 -56 73 -14 21 -32 38 -39 38 -8 0 -14 8 -14 18 0 18 -31 62 -43
62 -11 0 -67 59 -67 70 0 5 -10 10 -21 10 -12 0 -32 10 -43 23 -46 47 -99 87
-122 93 -13 3 -24 10 -24 15 0 5 -6 9 -14 9 -7 0 -19 7 -26 15 -7 8 -21 15
-31 15 -9 0 -24 7 -33 15 -8 8 -21 15 -29 15 -38 0 -64 65 -45 116 12 34 15
36 47 30 19 -3 38 -11 43 -18z m2303 -110 c7 -28 7 -37 -5 -273 -11 -234 -11
-222 -9 -237 1 -7 -1 -44 -4 -83 -19 -221 -7 -318 48 -391 14 -18 25 -43 25
-56 0 -13 7 -45 15 -72 17 -56 14 -66 -24 -66 -30 0 -81 -20 -81 -32 0 -12
-44 -10 -56 2 -5 5 -31 10 -56 11 -26 1 -52 5 -58 9 -16 10 13 110 44 157 14
21 26 42 26 47 0 5 11 19 25 32 14 13 25 34 25 48 0 13 6 26 13 28 9 4 12 94
14 399 2 399 3 422 22 472 13 33 29 35 36 5z m-1350 -138 c52 -23 148 -50 179
-50 19 0 37 -4 40 -9 3 -4 29 -11 58 -15 29 -4 59 -13 66 -19 8 -6 40 -15 71
-19 31 -4 90 -14 131 -23 41 -9 109 -22 150 -30 41 -7 103 -20 137 -28 34 -8
64 -12 67 -10 2 3 7 -5 11 -17 13 -41 -19 -60 -99 -60 -72 0 -189 -21 -259
-46 -20 -8 -53 -14 -71 -14 -20 0 -36 -6 -39 -14 -5 -13 -28 -19 -128 -32 -43
-6 -82 7 -109 36 -24 24 -134 90 -152 90 -13 0 -43 9 -67 20 -24 11 -52 20
-62 20 -10 0 -19 4 -19 10 0 5 -11 12 -25 16 -24 6 -25 8 -25 99 0 86 2 93 23
103 23 11 88 7 122 -8z m-945 -48 c19 -18 38 -32 42 -32 5 0 27 -13 50 -30 22
-16 47 -30 55 -30 7 0 13 -4 13 -9 0 -5 9 -11 21 -14 12 -3 18 -10 15 -15 -3
-6 7 -24 24 -40 16 -17 30 -34 30 -39 1 -13 37 -53 48 -53 6 0 14 -9 17 -20 3
-11 11 -20 17 -20 9 0 3 -48 -7 -58 -1 -2 -18 6 -37 16 -22 13 -65 22 -123 27
-107 8 -242 38 -261 56 -8 9 -16 51 -19 114 -4 55 -12 111 -18 124 -10 20 -8
26 10 40 33 27 82 20 123 -17z m2528 -18 c20 -6 22 -13 22 -65 0 -33 7 -76 15
-95 14 -34 14 -37 -8 -55 -13 -12 -30 -17 -42 -13 -11 4 -38 8 -60 11 -58 7
-75 27 -75 86 0 71 23 113 68 125 47 13 52 13 80 6z m-403 -124 c17 -19 17
-21 0 -40 -16 -18 -28 -20 -94 -16 -97 4 -98 11 -6 55 53 25 78 25 100 1z
m-1237 -148 c12 -8 22 -18 22 -23 0 -5 7 -9 16 -9 9 0 28 -6 42 -14 15 -7 39
-19 54 -26 21 -10 25 -18 22 -38 -7 -38 -22 -51 -52 -48 -15 2 -42 -7 -62 -20
-44 -29 -110 -40 -140 -24 -21 11 -22 17 -17 83 6 91 9 103 31 128 18 22 41
19 84 -9z m-910 -78 c15 -15 16 -40 2 -49 -5 -3 -10 -17 -10 -30 0 -14 -9 -29
-20 -35 -13 -7 -20 -7 -20 -1 0 6 -16 13 -35 17 -19 3 -35 9 -35 13 0 27 34
100 48 103 23 5 54 -3 70 -18z m2155 4 c8 -20 -4 -230 -15 -265 -9 -31 -12
-33 -56 -33 -26 0 -59 -6 -73 -14 -24 -12 -75 -14 -87 -1 -9 8 -5 121 4 137 4
7 9 35 11 63 4 77 22 111 56 106 4 0 7 4 7 9 0 15 147 13 153 -2z m-290 -28
c12 -18 11 -26 -9 -68 -20 -40 -23 -63 -24 -157 0 -60 -4 -115 -8 -121 -4 -5
-21 -16 -38 -23 -27 -11 -37 -10 -63 3 -17 9 -34 17 -38 17 -5 1 -30 11 -58
24 -75 34 -156 55 -213 55 -29 0 -52 5 -52 10 0 6 -6 10 -14 10 -7 0 -19 6
-25 14 -7 8 -27 18 -44 22 -34 7 -68 24 -78 38 -13 17 4 46 30 52 14 3 37 7
50 10 13 3 25 13 28 23 3 13 17 21 41 25 21 3 71 10 112 17 41 6 92 17 113 25
20 8 55 14 77 14 22 0 40 4 40 9 0 12 30 18 102 20 47 1 59 -3 71 -19z m-1722
-10 c27 -15 24 -45 -7 -65 -14 -9 -27 -15 -29 -13 -19 23 -23 47 -9 66 17 25
19 26 45 12z m2350 -21 c48 -48 -13 -147 -76 -123 -23 9 -19 126 4 136 29 12
51 8 72 -13z m-1514 -195 c-3 -3 -12 -4 -19 -1 -8 3 -5 6 6 6 11 1 17 -2 13
-5z m-1054 -24 c3 -11 1 -23 -4 -26 -5 -3 -9 6 -9 20 0 31 6 34 13 6z m122 -1
c5 -14 1 -27 -9 -37 -15 -15 -16 -13 -16 21 0 40 15 50 25 16z m1720 -219 c-3
-5 0 -10 7 -11 10 0 11 -2 0 -6 -10 -4 -10 -8 -1 -19 9 -11 8 -14 -5 -14 -11
0 -16 9 -16 30 0 17 5 30 11 30 5 0 7 -4 4 -10z m25 -157 c-1 -62 -2 -66 -15
-49 -8 11 -18 35 -21 54 -5 28 -3 38 11 49 11 7 20 13 22 13 2 0 3 -30 3 -67z
m290 -5 c0 -5 -11 -8 -25 -8 -14 0 -25 4 -25 9 0 5 11 8 25 7 14 0 25 -4 25
-8z m-270 -270 c0 -5 -9 -8 -20 -8 -19 0 -28 28 -13 43 6 7 32 -21 33 -35z
m11 -113 c3 -44 10 -97 14 -118 5 -26 4 -46 -5 -63 -16 -29 -21 -29 -47 -6
-15 13 -18 26 -15 57 2 22 8 48 14 58 6 12 5 30 -2 53 -16 47 -5 106 18 102
14 -3 18 -19 23 -83z"/>
<path d="M2758 5041 c-47 -7 -77 -30 -78 -59 0 -8 14 -27 30 -42 18 -17 30
-37 29 -52 -1 -16 -3 -18 -6 -6 -4 14 -13 16 -56 12 -123 -12 -147 -53 -74
-128 40 -42 45 -44 116 -51 59 -6 76 -4 88 8 20 20 12 54 -27 102 -30 37 -41
95 -19 95 6 0 9 -7 5 -15 -4 -11 2 -15 25 -15 18 0 28 -4 24 -10 -4 -6 5 -10
20 -10 14 0 47 -10 73 -22 37 -17 67 -22 137 -22 50 -1 102 2 117 7 76 21 17
158 -74 170 -22 3 -44 11 -48 17 -4 6 -49 15 -101 20 -103 10 -112 10 -181 1z"/>
<path d="M1971 4504 c-31 -16 -41 -32 -41 -69 0 -23 -3 -27 -10 -15 -5 8 -10
10 -10 5 0 -6 4 -15 10 -21 11 -11 14 -79 5 -114 -5 -21 -1 -27 26 -39 25 -11
36 -11 50 -2 10 6 38 11 63 11 41 0 44 2 50 31 11 58 6 183 -9 203 -7 10 -17
16 -22 13 -4 -3 -26 -2 -48 2 -25 4 -49 3 -64 -5z"/>
<path d="M3428 3129 c-10 -5 -18 -19 -18 -29 0 -17 7 -20 40 -20 33 0 42 4 49
23 5 12 7 25 4 30 -6 10 -55 8 -75 -4z"/>
<path d="M3730 3100 c-15 -3 -27 -16 -32 -30 -17 -66 -28 -124 -28 -155 0 -20
-6 -44 -12 -55 -10 -16 -10 -23 4 -36 22 -23 58 -12 83 25 10 16 23 27 27 25
4 -3 10 7 14 21 3 14 12 25 20 25 10 0 14 15 14 55 0 44 -3 53 -15 49 -10 -4
-15 0 -15 15 0 14 5 19 16 14 12 -5 15 0 12 23 -2 25 -8 29 -33 30 -16 0 -41
-2 -55 -6z"/>
<path d="M2009 2957 c-14 -12 -29 -34 -33 -49 -3 -16 -10 -28 -15 -28 -5 0 -9
-35 -8 -77 0 -74 15 -128 39 -144 16 -10 60 3 54 16 -2 7 2 25 10 40 7 14 13
36 13 48 -1 12 4 46 10 75 6 31 7 60 2 70 -5 9 -14 29 -20 45 -13 33 -19 33
-52 4z"/>
<path d="M2225 2640 c-3 -5 -1 -10 4 -10 6 0 11 5 11 10 0 6 -2 10 -4 10 -3 0
-8 -4 -11 -10z"/>
<path d="M2574 2633 c11 -11 46 -14 46 -3 0 6 -12 10 -27 10 -14 0 -23 -3 -19
-7z"/>
<path d="M2278 2613 c7 -3 16 -2 19 1 4 3 -2 6 -13 5 -11 0 -14 -3 -6 -6z"/>
<path d="M2328 2613 c6 -2 18 -2 25 0 6 3 1 5 -13 5 -14 0 -19 -2 -12 -5z"/>
<path d="M2665 2580 c-3 -5 -1 -10 4 -10 6 0 11 5 11 10 0 6 -2 10 -4 10 -3 0
-8 -4 -11 -10z"/>
<path d="M3630 2340 c0 -5 5 -10 10 -10 6 0 10 5 10 10 0 6 -4 10 -10 10 -5 0
-10 -4 -10 -10z"/>
<path d="M4424 4197 c-27 -8 -33 -15 -38 -50 -4 -23 -11 -46 -16 -52 -5 -6
-11 -20 -13 -31 -2 -10 -8 -28 -14 -39 -18 -33 -34 -168 -26 -220 6 -42 64
-70 129 -62 51 5 71 23 80 67 3 14 16 47 30 73 34 63 45 184 20 221 -9 14 -16
32 -16 40 0 20 -61 65 -85 64 -11 -1 -34 -6 -51 -11z"/>
<path d="M2957 3773 c-16 -2 -31 -11 -34 -19 -3 -8 -10 -14 -17 -14 -6 -1 -24
-11 -39 -23 -34 -28 -38 -84 -13 -171 15 -49 20 -57 46 -63 16 -3 32 -4 36 -3
4 1 10 -3 13 -8 11 -17 88 -21 116 -6 15 8 33 14 40 14 23 0 75 114 75 165 0
41 -5 52 -37 85 -33 32 -45 38 -98 42 -33 3 -73 3 -88 1z"/>
<path d="M2963 6284 c20 -11 49 -15 93 -12 35 2 65 -1 67 -6 2 -5 54 -11 116
-12 62 -2 118 -7 124 -10 7 -4 9 -3 4 1 -14 16 -77 33 -99 27 -13 -3 -19 -1
-15 5 11 18 -17 22 -170 22 -139 0 -146 -1 -120 -15z"/>
<path d="M3835 6241 c6 -55 5 -59 -21 -78 l-27 -20 23 -23 c21 -21 33 -24 88
-22 39 1 61 -2 57 -8 -3 -5 7 -13 22 -16 15 -4 33 -14 39 -22 8 -11 22 -13 57
-8 44 7 45 8 29 25 -9 10 -20 16 -24 14 -5 -2 -8 1 -8 8 0 8 -14 10 -43 7 -87
-10 -98 75 -12 96 36 9 85 53 85 77 0 10 6 20 13 22 6 3 -23 6 -66 6 -50 1
-76 -3 -72 -9 4 -6 -8 -10 -29 -10 -19 0 -38 5 -41 10 -3 6 -22 10 -42 10
l-35 0 7 -59z"/>
<path d="M3478 6223 c23 -2 42 -8 42 -14 0 -5 6 -9 13 -9 8 0 14 7 14 15 0 12
-12 15 -56 13 -50 -1 -52 -2 -13 -5z"/>
<path d="M585 6130 c3 -5 10 -10 16 -10 5 0 9 5 9 10 0 6 -7 10 -16 10 -8 0
-12 -4 -9 -10z"/>
<path d="M1053 6073 c-15 -32 -11 -38 15 -24 14 7 18 17 15 31 -7 27 -16 25
-30 -7z"/>
<path d="M4425 5980 c3 -5 11 -10 16 -10 6 0 7 5 4 10 -3 6 -11 10 -16 10 -6
0 -7 -4 -4 -10z"/>
<path d="M4470 5969 c0 -17 25 -29 48 -22 23 8 12 31 -18 35 -23 4 -30 1 -30
-13z"/>
<path d="M4680 5951 c0 -6 -6 -11 -13 -11 -8 0 -14 -7 -14 -15 0 -8 4 -15 9
-15 4 0 8 -6 8 -14 0 -18 25 -27 37 -15 6 6 20 6 37 -1 33 -12 245 -13 265 -1
9 6 -9 11 -55 16 -38 3 -78 10 -89 15 -11 5 -51 13 -88 19 -38 5 -75 15 -83
22 -10 8 -14 8 -14 0z"/>
<path d="M440 5849 c0 -5 5 -7 10 -4 6 3 10 8 10 11 0 2 -4 4 -10 4 -5 0 -10
-5 -10 -11z"/>
<path d="M5095 5850 c3 -5 22 -10 41 -10 19 0 34 5 34 10 0 6 -18 10 -41 10
-24 0 -38 -4 -34 -10z"/>
<path d="M863 5813 c0 -17 -9 -33 -22 -41 -11 -8 -21 -23 -21 -35 0 -29 22
-97 32 -97 4 0 8 -13 8 -30 0 -29 15 -41 22 -19 2 7 19 1 42 -15 21 -14 46
-26 55 -26 14 -1 14 -2 -1 -14 -23 -17 -23 -28 -1 -24 18 3 24 24 24 77 -1 48
-14 58 -54 43 -28 -11 -34 -10 -44 5 -14 18 -15 29 -21 166 -2 42 -19 51 -19
10z"/>
<path d="M5240 5835 c0 -8 96 -48 140 -57 25 -5 88 -12 140 -15 69 -3 98 -9
107 -20 6 -8 16 -12 21 -9 6 3 30 -2 54 -12 59 -26 111 -35 106 -20 -2 6 -20
17 -39 24 -19 7 -29 13 -24 13 20 2 -21 21 -45 21 -18 0 -21 3 -11 9 9 6 -3 9
-35 9 -27 1 -63 8 -79 16 -17 9 -39 16 -50 16 -12 0 -26 5 -32 11 -10 10 -253
24 -253 14z m233 -62 c-7 -2 -19 -2 -25 0 -7 3 -2 5 12 5 14 0 19 -2 13 -5z"/>
<path d="M1469 5818 c-1 -7 -1 -19 0 -25 1 -7 -5 -13 -14 -13 -8 0 -15 -4 -15
-10 0 -5 6 -10 13 -10 14 0 16 -34 4 -46 -13 -13 -7 -24 12 -24 27 0 52 -11
46 -20 -3 -4 3 -7 12 -6 14 1 16 -8 14 -51 -2 -33 2 -53 8 -53 7 0 11 -25 11
-63 0 -69 6 -83 26 -66 10 8 11 16 3 31 -11 20 -15 47 -23 143 -2 22 1 58 7
80 8 34 6 47 -14 90 -21 43 -28 50 -56 53 -22 2 -33 -1 -34 -10z"/>
<path d="M391 5794 c0 -11 3 -14 6 -6 3 7 2 16 -1 19 -3 4 -6 -2 -5 -13z"/>
<path d="M5834 5694 c3 -8 6 -18 6 -20 0 -2 11 -4 25 -4 14 0 25 5 25 11 0 6
-7 9 -15 5 -8 -3 -15 -1 -15 3 0 5 -7 12 -16 15 -12 5 -15 2 -10 -10z"/>
<path d="M5970 5660 c-25 -8 -25 -8 5 -9 17 -1 43 -8 59 -16 39 -21 55 -19 49
5 -3 11 -11 20 -18 20 -7 0 -25 2 -41 4 -16 3 -40 1 -54 -4z"/>
<path d="M990 5489 c0 -5 5 -7 10 -4 6 3 10 8 10 11 0 2 -4 4 -10 4 -5 0 -10
-5 -10 -11z"/>
<path d="M512 4530 c-31 -29 -27 -40 13 -40 32 0 34 2 32 30 -2 35 -15 38 -45
10z"/>
<path d="M560 2995 c0 -27 1 -28 24 -19 24 9 20 44 -4 44 -15 0 -20 -7 -20
-25z"/>
<path d="M4567 1452 c-36 -39 -17 -72 41 -72 34 0 48 9 56 38 6 16 3 22 -8 22
-9 0 -16 7 -16 15 0 22 -53 19 -73 -3z"/>
<path d="M5776 359 c-28 -27 -35 -123 -11 -149 18 -20 18 -20 42 2 13 12 23
27 23 35 0 7 4 13 9 13 5 0 15 16 21 35 6 19 16 35 21 35 5 0 9 5 9 10 0 6 -7
10 -15 10 -8 0 -15 6 -15 13 0 20 -62 17 -84 -4z"/>
</g>
</svg>
